<svg width="321" height="206" viewBox="0 0 321 206" fill="none" xmlns="http://www.w3.org/2000/svg">
<path d="M170.75 56.6354C180.522 56.6354 187.465 56.6433 192.732 57.3284C197.888 57.9991 200.859 59.2568 203.028 61.3553C205.524 63.7707 206.611 65.643 207.213 68.9809C207.891 72.7431 207.906 78.1096 207.906 87.625C207.906 89.6788 209.627 91.3437 211.75 91.3437C213.873 91.3437 215.594 89.6788 215.594 87.625V87.1475C215.594 78.2265 215.594 72.1833 214.786 67.7024C213.887 62.7176 211.971 59.4898 208.464 56.0961C204.628 52.3855 199.765 50.7388 193.756 49.9572C187.918 49.1978 180.458 49.1978 171.039 49.1979H170.75C168.627 49.1979 166.906 50.8629 166.906 52.9167C166.906 54.9705 168.627 56.6354 170.75 56.6354Z" fill="#043229"/>
<path d="M109.25 113.656C111.373 113.656 113.094 115.321 113.094 117.375C113.094 126.891 113.109 132.257 113.787 136.019C114.389 139.357 115.476 141.23 117.972 143.645C120.141 145.743 123.112 147.001 128.268 147.671C133.535 148.357 140.478 148.365 150.25 148.365C152.373 148.365 154.094 150.03 154.094 152.083C154.094 154.137 152.373 155.802 150.25 155.802H149.961C140.542 155.802 133.082 155.802 127.244 155.043C121.235 154.261 116.372 152.614 112.536 148.904C109.029 145.51 107.113 142.282 106.214 137.298C105.406 132.817 105.406 126.774 105.406 117.853L105.406 117.375C105.406 115.321 107.127 113.656 109.25 113.656Z" fill="#043229"/>
<path d="M211.75 113.656C213.873 113.656 215.594 115.321 215.594 117.375V117.852C215.594 126.774 215.594 132.817 214.786 137.298C213.887 142.282 211.971 145.51 208.464 148.904C204.628 152.614 199.765 154.261 193.756 155.043C187.918 155.802 180.458 155.802 171.039 155.802H170.75C168.627 155.802 166.906 154.137 166.906 152.083C166.906 150.03 168.627 148.365 170.75 148.365C180.522 148.365 187.465 148.357 192.732 147.671C197.888 147.001 200.859 145.743 203.028 143.645C205.524 141.23 206.611 139.357 207.213 136.019C207.891 132.257 207.906 126.891 207.906 117.375C207.906 115.321 209.627 113.656 211.75 113.656Z" fill="#043229"/>
<path d="M149.961 49.1979H150.25C152.373 49.1979 154.094 50.8629 154.094 52.9167C154.094 54.9705 152.373 56.6354 150.25 56.6354C140.478 56.6354 133.535 56.6433 128.268 57.3284C123.112 57.9991 120.141 59.2568 117.972 61.3553C115.476 63.7707 114.389 65.643 113.787 68.9809C113.109 72.7431 113.094 78.1096 113.094 87.625C113.094 89.6788 111.373 91.3437 109.25 91.3437C107.127 91.3437 105.406 89.6788 105.406 87.625L105.406 87.1475C105.406 78.2266 105.406 72.1833 106.214 67.7024C107.113 62.7176 109.029 59.4898 112.536 56.0961C116.372 52.3855 121.235 50.7388 127.244 49.9572C133.082 49.1978 140.542 49.1978 149.961 49.1979Z" fill="#043229"/>
<path d="M160.5 96.3021C156.962 96.3021 154.094 99.0768 154.094 102.5C154.094 105.923 156.962 108.698 160.5 108.698C164.038 108.698 166.906 105.923 166.906 102.5C166.906 99.0768 164.038 96.3021 160.5 96.3021Z" fill="#043229"/>
<path fill-rule="evenodd" clip-rule="evenodd" d="M129.199 112.713C126.15 109.291 124.625 107.58 124.625 102.5C124.625 97.4197 126.15 95.7086 129.199 92.2869C135.287 85.4544 145.498 77.7083 160.5 77.7083C175.502 77.7083 185.713 85.4543 191.801 92.2869C194.85 95.7086 196.375 97.4197 196.375 102.5C196.375 107.58 194.85 109.291 191.801 112.713C185.713 119.546 175.502 127.292 160.5 127.292C145.498 127.292 135.287 119.546 129.199 112.713ZM146.406 102.5C146.406 94.9693 152.716 88.8646 160.5 88.8646C168.284 88.8646 174.594 94.9693 174.594 102.5C174.594 110.031 168.284 116.135 160.5 116.135C152.716 116.135 146.406 110.031 146.406 102.5Z" fill="#043229"/>
<rect x="2.5" y="2.5" width="316" height="201" rx="12.5" stroke="#00FFCC" stroke-width="5"/>
</svg>
